# xmcd
#
# Track frame offsets: 
#        150
#        15972
#        36460
#        56527
#        74715
#        97375
#        118407
#        136437
#        154707
#        175840
#        196440
#        220027
#
# Disc length: 3217 seconds
#
# Revision: 0
# Processed by: cddbd v1.5.1PL0 Copyright (c) Steve Scherf et al.
# Submitted via: ExactAudioCopy v0.95b2
#
DISCID=b60c8f0c
DTITLE=Amy Sky - Cool Rain
DYEAR=1997
DGENRE=Country
TTITLE0=Til you love somebody
TTITLE1=I will take care of you
TTITLE2=Don't leave me alone
TTITLE3=If my heart had wings
TTITLE4=Wall against the waters
TTITLE5=Cool rain
TTITLE6=Colorado
TTITLE7=Everything
TTITLE8=Run away
TTITLE9=Unbreakable heart
TTITLE10=Soledad
TTITLE11=Til tomorrow
EXTD=
EXTT0=
EXTT1=
EXTT2=
EXTT3=
EXTT4=
EXTT5=
EXTT6=
EXTT7=
EXTT8=
EXTT9=
EXTT10=
EXTT11=
PLAYORDER=
